<svg
  width="100"
  height="100"
  viewBox="0 0 100 100"
  fill="none"
  xmlns="http://www.w3.org/2000/svg"
>
  <rect fill="#2196F3" x="0" y="0" width="100" height="100" rx="4" />
  <path
    d="M60.875 11L60.9775 11.0049C61.4817 11.0562 61.875 11.4823 61.875 12V36.8125H75.625C76.0069 36.8125 76.3556 37.03 76.5234 37.373C76.6912 37.7161 76.6485 38.1253 76.4141 38.4268L50.6016 71.6143C50.4121 71.8576 50.1209 72 49.8125 72C49.5041 72 49.2129 71.8576 49.0234 71.6143L23.2109 38.4268C22.9765 38.1253 22.9338 37.7161 23.1016 37.373C23.2694 37.03 23.6181 36.8125 24 36.8125H37.75V12L37.7549 11.8975C37.8062 11.3933 38.2323 11 38.75 11H60.875Z"
    fill="white"
    stroke="white"
    stroke-width="2"
    stroke-linejoin="round"
  />
  <path
    d="M76 83L76.1025 83.0049C76.6067 83.0562 77 83.4823 77 84V88C77 88.5523 76.5523 89 76 89H24C23.4477 89 23 88.5523 23 88V84L23.0049 83.8975C23.0562 83.3933 23.4823 83 24 83H76Z"
    fill="white"
    stroke="white"
    stroke-width="2"
    stroke-linejoin="round"
  />
</svg>
