<svg width="100" height="97" viewBox="0 0 100 97" fill="none" xmlns="http://www.w3.org/2000/svg">
<path d="M92.9961 41.5739L94.8279 41.5739C97.6941 41.5739 100 39.2575 100 36.3782L100 8.66782C100 6.5679 98.7501 4.66281 96.8105 3.8618C94.871 3.0608 92.6513 3.49378 91.1643 4.98754L82.1992 13.9934C63.3209 -4.73274 32.9131 -4.6678 14.1426 14.2099C-4.71419 33.1525 -4.7142 63.8504 14.1425 82.793C32.9993 101.736 63.558 101.736 82.4147 82.793C85.1086 80.0869 85.1086 75.6923 82.4147 72.9862C79.7209 70.2801 75.3462 70.2801 72.6523 72.9862C59.1832 86.5166 37.3525 86.5166 23.8834 72.9862C10.4143 59.4557 10.4143 37.5255 23.8834 23.9951C37.2879 10.5296 58.9462 10.4647 72.4368 23.7786L63.5796 32.6979C62.0926 34.1917 61.6615 36.4215 62.4589 38.3699C63.2563 40.3182 65.1527 41.5739 67.2431 41.5739L92.9961 41.5739Z" fill="black"/>
</svg>
